<?xml version="1.0" encoding="UTF-8" standalone="no"?>
<!-- Created with Inkscape (http://www.inkscape.org/) -->

<svg
   width="1024"
   height="500"
   viewBox="0 0 270.93333 132.29167"
   version="1.1"
   id="svg1"
   inkscape:version="1.4 (86a8ad7, 2024-10-11)"
   sodipodi:docname="drawing.svg"
   inkscape:export-filename="drawing.png"
   inkscape:export-xdpi="96"
   inkscape:export-ydpi="96"
   xmlns:inkscape="http://www.inkscape.org/namespaces/inkscape"
   xmlns:sodipodi="http://sodipodi.sourceforge.net/DTD/sodipodi-0.dtd"
   xmlns="http://www.w3.org/2000/svg"
   xmlns:svg="http://www.w3.org/2000/svg">
  <sodipodi:namedview
     id="namedview1"
     pagecolor="#ffffff"
     bordercolor="#000000"
     borderopacity="0.25"
     inkscape:showpageshadow="2"
     inkscape:pageopacity="0.0"
     inkscape:pagecheckerboard="0"
     inkscape:deskcolor="#d1d1d1"
     inkscape:document-units="mm"
     inkscape:zoom="0.71891836"
     inkscape:cx="455.54546"
     inkscape:cy="156.48508"
     inkscape:window-width="1920"
     inkscape:window-height="1009"
     inkscape:window-x="-8"
     inkscape:window-y="-8"
     inkscape:window-maximized="1"
     inkscape:current-layer="layer2"
     inkscape:export-bgcolor="#ffffffff" />
  <defs
     id="defs1">
    <inkscape:path-effect
       effect="fillet_chamfer"
       id="path-effect1"
       is_visible="true"
       lpeversion="1"
       nodesatellites_param="F,0,0,1,0,0,0,1 @ F,0,0,1,0,0,0,1 @ F,0,0,1,0,0,0,1 @ F,0,0,1,0,10.449984,0,1 @ F,0,0,1,0,0,0,1 @ F,0,0,1,0,0,0,1 @ F,0,0,1,0,12.786131,0,1 @ F,0,0,1,0,0,0,1 @ F,0,0,1,0,0,0,1"
       radius="10"
       unit="px"
       method="auto"
       mode="F"
       chamfer_steps="1"
       flexible="false"
       use_knot_distance="true"
       apply_no_radius="true"
       apply_with_radius="true"
       only_selected="false"
       hide_knots="false" />
    <inkscape:path-effect
       effect="fillet_chamfer"
       id="path-effect2"
       is_visible="true"
       lpeversion="1"
       nodesatellites_param="F,0,0,1,0,10,0,1 @ F,0,0,1,0,10,0,1 @ F,0,0,1,0,10,0,1 @ F,0,0,1,0,10,0,1"
       radius="10"
       unit="px"
       method="auto"
       mode="F"
       chamfer_steps="1"
       flexible="false"
       use_knot_distance="true"
       apply_no_radius="true"
       apply_with_radius="true"
       only_selected="false"
       hide_knots="false" />
    <filter
       style="color-interpolation-filters:sRGB"
       inkscape:label="Drop Shadow"
       id="filter334"
       x="-0.022855415"
       y="-0.019442687"
       width="1.054522"
       height="1.0474289">
      <feFlood
         result="flood"
         in="SourceGraphic"
         flood-opacity="0.498039"
         flood-color="rgb(0,0,0)"
         id="feFlood333" />
      <feGaussianBlur
         result="blur"
         in="SourceGraphic"
         stdDeviation="0.300000"
         id="feGaussianBlur333" />
      <feOffset
         result="offset"
         in="blur"
         dx="2.000000"
         dy="2.279635"
         id="feOffset333" />
      <feComposite
         result="comp1"
         operator="in"
         in="flood"
         in2="offset"
         id="feComposite333" />
      <feComposite
         result="comp2"
         operator="over"
         in="SourceGraphic"
         in2="comp1"
         id="feComposite334" />
    </filter>
  </defs>
  <g
     inkscape:label="Layer 1"
     inkscape:groupmode="layer"
     id="layer1"
     sodipodi:insensitive="true">
    <g
       id="g1"
       transform="translate(-108.25831,-24.982687)">
      <g
         inkscape:groupmode="layer"
         id="layer3"
         inkscape:label="Board"
         style="display:inline"
         transform="matrix(0.26458333,0,0,0.26458333,97.019613,25.188005)">
        <path
           style="display:inline;opacity:1;fill:#000000;fill-opacity:1;fill-rule:evenodd;stroke:#000000;stroke-width:9.53634;stroke-linecap:round;stroke-linejoin:round;stroke-dasharray:none;stroke-opacity:1"
           id="rect2"
           width="259.84024"
           height="309.65494"
           x="126.07987"
           y="84.897766"
           inkscape:path-effect="#path-effect2"
           sodipodi:type="rect"
           d="m 136.07987,84.897766 h 239.84024 a 10,10 45 0 1 10,10 V 384.5527 a 10,10 135 0 1 -10,10 H 136.07987 a 10,10 45 0 1 -10,-10 l 0,-289.654934 a 10,10 135 0 1 10,-10 z"
           transform="matrix(1,0,0,1.0996056,0,-8.4562949)" />
        <rect
           style="display:inline;fill:#ffffff;fill-opacity:1;fill-rule:evenodd;stroke:#000000;stroke-width:8.93567;stroke-linecap:round;stroke-linejoin:round;stroke-dasharray:none;stroke-opacity:1;filter:url(#filter334)"
           id="rect3"
           width="226.98494"
           height="266.82706"
           x="142.50754"
           y="110.81317"
           transform="matrix(1.0384985,0,0,1.2059801,-9.8934623,-40.319157)" />
      </g>
      <g
         inkscape:groupmode="layer"
         id="layer4"
         inkscape:label="Text"
         style="display:inline"
         transform="matrix(0.26458333,0,0,0.26458333,111.30711,32.532583)">
        <text
           xml:space="preserve"
           style="font-style:normal;font-variant:normal;font-weight:normal;font-stretch:normal;font-size:48.6677px;font-family:'Artifakt Element';-inkscape-font-specification:'Artifakt Element';text-align:start;writing-mode:lr-tb;direction:ltr;text-anchor:start;fill:none;fill-opacity:1;fill-rule:evenodd;stroke:#000000;stroke-width:1;stroke-linecap:round;stroke-linejoin:round;stroke-dasharray:none;stroke-opacity:1"
           x="138.54239"
           y="299.00821"
           id="text4"
           transform="scale(0.83280914,1.2007553)"><tspan
             sodipodi:role="line"
             id="tspan4"
             x="138.54239"
             y="299.00821"
             style="font-style:normal;font-variant:normal;font-weight:800;font-stretch:normal;font-size:48.6677px;font-family:'Artifakt Element';-inkscape-font-specification:'Artifakt Element Ultra-Bold';fill:#000000;fill-opacity:1;stroke-width:1">4 CLICKS</tspan></text>
        <text
           xml:space="preserve"
           style="font-style:normal;font-variant:normal;font-weight:normal;font-stretch:normal;font-size:48.6677px;font-family:'Artifakt Element';-inkscape-font-specification:'Artifakt Element';text-align:start;writing-mode:lr-tb;direction:ltr;text-anchor:start;fill:none;fill-opacity:1;fill-rule:evenodd;stroke:#000000;stroke-width:1;stroke-linecap:round;stroke-linejoin:round;stroke-dasharray:none;stroke-opacity:1"
           x="138.54239"
           y="248.7251"
           id="text1"
           transform="scale(0.83280914,1.2007553)"><tspan
             sodipodi:role="line"
             id="tspan1"
             x="138.54239"
             y="248.7251"
             style="font-style:normal;font-variant:normal;font-weight:800;font-stretch:normal;font-size:48.6677px;font-family:'Artifakt Element';-inkscape-font-specification:'Artifakt Element Ultra-Bold';fill:#000000;fill-opacity:1;stroke-width:1">78 PSI</tspan></text>
      </g>
      <g
         inkscape:groupmode="layer"
         id="layer5"
         inkscape:label="MTB"
         transform="matrix(0.26458333,0,0,0.26458333,403.85976,-123.66211)"
         style="display:inline">
        <path
           style="display:inline;fill:#000000;fill-opacity:1"
           d="m -970.59676,820.45389 c -22.6422,-7.45471 -33.19324,-31.78635 -22.77145,-52.51279 3.01322,-5.99256 10.11017,-12.95065 16.4939,-16.17118 5.16546,-2.60594 6.78401,-2.9159 15.27755,-2.92576 9.22848,-0.0107 11.96296,0.69965 20.1047,5.22283 0.33258,0.18476 1.83715,-1.27989 3.34348,-3.2548 l 2.73879,-3.59073 -2.20963,-5.44417 c -2.20318,-5.42828 -2.22241,-5.44416 -6.59348,-5.44416 -3.05052,0 -4.99215,-0.60829 -6.38386,-2 -2.57132,-2.57132 -2.57132,-7.42867 0,-10 1.82223,-1.82222 3.33334,-2 17,-2 13.66667,0 15.17778,0.17778 17,2 4.12983,4.12983 1.17851,12 -4.5,12 -1.55555,0 -2.5,0.56667 -2.5,1.5 0,0.825 0.34955,1.5 0.77678,1.5 1.0532,0 42.39035,-13.83378 42.92009,-14.36353 0.23116,-0.23116 -0.2581,-2.04394 -1.08725,-4.02838 l -1.50756,-3.60809 h -9.01207 c -7.98313,0 -9.24487,-0.24987 -11.05103,-2.18856 -1.12143,-1.20371 -2.03896,-3.03329 -2.03896,-4.06574 0,-2.1907 1.81856,-5.92463 3.39971,-6.98039 2.09414,-1.39829 24.99484,-0.87772 27.12779,0.61667 1.17405,0.82256 5.41217,9.87955 10.46988,22.37447 l 8.49738,20.9925 8.10901,0.50591 c 14.37017,0.89652 25.38769,8.06893 31.53423,20.52879 1.98336,4.02054 3.58327,6.37449 3.59836,15.3254 0.0159,9.4078 -1.28635,11.50352 -3.70955,16.43744 -7.71919,15.71715 -26.35048,23.66568 -42.58506,18.9989 -11.52815,-3.31387 -18.91686,-9.78864 -24.10677,-21.12489 -2.15502,-4.70718 -2.63207,-7.21899 -2.62776,-13.83589 0.007,-11.36225 2.79089,-18.24271 10.49792,-25.94974 5.26867,-5.26867 5.78883,-6.15299 5.00403,-8.50737 -0.4817,-1.44512 -1.28833,-2.60694 -1.7925,-2.58181 -0.50416,0.0251 -8.00563,9.25012 -16.66993,20.5 -8.66429,11.24987 -16.70164,21.24181 -17.86078,22.20431 -1.65998,1.37838 -4.00185,1.75 -11.02812,1.75 -7.63379,0 -8.99458,0.25244 -9.43342,1.75 -0.28204,0.9625 -1.88422,4.54745 -3.56039,7.96656 -5.78847,11.80748 -16.44332,18.45559 -30.36403,18.94566 -4.4,0.1549 -9.125,-0.0888 -10.5,-0.54146 z m 18.89524,-15.75584 c 4.72159,-2.35287 11.10476,-8.97183 11.10476,-11.51496 0,-0.46748 -4.4707,-0.84996 -9.9349,-0.84996 -13.72701,0 -17.01781,-1.41564 -17.04978,-7.33448 -0.0121,-2.24731 1.64279,-4.42244 7.98886,-10.5 4.4023,-4.21604 8.0023,-8.184 8,-8.81769 -0.002,-0.6337 -1.42133,-1.6462 -3.1534,-2.25 -10.01886,-3.4926 -21.61776,1.91086 -26.47001,12.33131 -4.18902,8.99613 -2.62576,17.37477 4.59156,24.60941 7.34767,7.36532 15.85945,8.84288 24.92291,4.32637 z m 109.42555,1.56296 c 4.67794,-1.29899 11.15862,-6.98709 13.75163,-12.06983 4.66635,-9.14679 1.3649,-21.61677 -7.26993,-27.45944 -4.27407,-2.892 -11.12275,-4.93674 -12.88573,-3.84716 -0.42396,0.26202 0.99633,4.81956 3.1562,10.12786 2.15988,5.30829 3.92705,10.65217 3.92705,11.87529 0,5.84949 -7.93691,9.08808 -11.91561,4.86207 -0.99248,-1.05417 -3.48396,-6.19167 -5.53662,-11.41667 -2.05266,-5.225 -3.90439,-9.67625 -4.11494,-9.89166 -0.21055,-0.21542 -1.31851,0.68458 -2.46212,2 -5.91805,6.80711 -6.73887,17.27607 -2.00206,25.53493 5.25668,9.16527 15.06056,13.14241 25.35213,10.28461 z m -79.32079,-27.90185 c 0,-1.06707 -5.91377,-16.26381 -6.59723,-16.95303 -0.23289,-0.23485 -1.04323,0.42063 -1.80077,1.45662 -1.14158,1.56121 -1.1533,2.23339 -0.0685,3.927 0.71986,1.12386 2.07111,4.40588 3.00277,7.29338 1.25104,3.87734 2.18676,5.25 3.57883,5.25 1.03669,0 1.88489,-0.43828 1.88489,-0.97397 z m -19,-1.02603 c 0,-0.55 -0.42344,-1 -0.94098,-1 -0.51754,0 -1.2191,0.45 -1.55902,1 -0.33991,0.55 0.0835,1 0.94099,1 0.85746,0 1.55901,-0.45 1.55901,-1 z m 43.54102,-20.33326 c 5.84418,-7.6083 10.4447,-14.01436 10.22336,-14.2357 -0.70625,-0.70624 -29.26449,9.2063 -29.26161,10.15668 0.006,1.85816 7.02267,18.39551 7.70484,18.15832 0.38919,-0.13532 5.48922,-6.47101 11.33341,-14.0793 z"
           id="path1"
           sodipodi:nodetypes="cssssscssssssssssscsssssscsssssscssssssssscssssscssssssssssssssssssssssssssssssscss" />
      </g>
      <g
         inkscape:groupmode="layer"
         id="layer6"
         inkscape:label="Clip"
         style="display:inline;stroke-width:0.874868"
         transform="matrix(0.30242658,0,0,0.30242658,87.331742,21.747337)">
        <path
           id="rect1"
           style="display:inline;opacity:1;fill:#ffffff;fill-opacity:1;fill-rule:evenodd;stroke:#000000;stroke-width:9.40402;stroke-linecap:round;stroke-linejoin:round;stroke-dasharray:none;stroke-opacity:1"
           d="m 256,52.649451 c -10.46179,9e-6 -18.94278,8.138275 -18.94294,18.177433 0.0135,1.476006 0.21436,2.944935 0.59805,4.37434 H 201.19542 A 10.449984,10.449984 135 0 0 190.74544,85.651208 V 115.36484 H 321.25456 V 87.987355 A 12.786131,12.786131 45 0 0 308.46843,75.201224 h -34.12354 c 0.38369,-1.429405 0.58452,-2.898334 0.59805,-4.37434 C 274.94278,60.787726 266.46179,52.64946 256,52.649451 Z"
           inkscape:path-effect="#path-effect1"
           inkscape:original-d="m 256,52.649451 a 18.942957,18.177713 0 0 0 -18.94294,18.177433 18.942957,18.177713 0 0 0 0.59805,4.37434 H 190.74544 V 115.36484 H 321.25456 V 75.201224 h -46.90967 a 18.942957,18.177713 0 0 0 0.59805,-4.37434 A 18.942957,18.177713 0 0 0 256,52.649451 Z"
           transform="matrix(0.86549564,0,0,1,34.433116,0)" />
      </g>
    </g>
  </g>
  <g
     inkscape:groupmode="layer"
     id="layer2"
     inkscape:label="Layer 2">
    <text
       xml:space="preserve"
       style="font-style:normal;font-variant:normal;font-weight:normal;font-stretch:normal;font-size:19.247px;font-family:'Artifakt Element';-inkscape-font-specification:'Artifakt Element';text-align:start;writing-mode:lr-tb;direction:ltr;text-anchor:start;display:inline;fill:none;fill-opacity:1;fill-rule:evenodd;stroke:#000000;stroke-width:0.264583;stroke-linecap:round;stroke-linejoin:round;stroke-dasharray:none;stroke-opacity:1"
       x="124.27786"
       y="37.343521"
       id="text5"
       transform="scale(0.8325558,1.2011207)"><tspan
         sodipodi:role="line"
         id="tspan5"
         x="124.27786"
         y="37.343521"
         style="font-style:normal;font-variant:normal;font-weight:800;font-stretch:normal;font-size:19.247px;font-family:'Artifakt Element';-inkscape-font-specification:'Artifakt Element Ultra-Bold';fill:#000000;fill-opacity:1;stroke-width:0.264583">Add Bikes</tspan><tspan
         sodipodi:role="line"
         x="124.27786"
         y="61.402271"
         style="font-style:normal;font-variant:normal;font-weight:800;font-stretch:normal;font-size:19.247px;font-family:'Artifakt Element';-inkscape-font-specification:'Artifakt Element Ultra-Bold';fill:#000000;fill-opacity:1;stroke-width:0.264583"
         id="tspan2">Add Components</tspan><tspan
         sodipodi:role="line"
         x="124.27786"
         y="85.461021"
         style="font-style:normal;font-variant:normal;font-weight:800;font-stretch:normal;font-size:19.247px;font-family:'Artifakt Element';-inkscape-font-specification:'Artifakt Element Ultra-Bold';fill:#000000;fill-opacity:1;stroke-width:0.264583"
         id="tspan3">Add Setups</tspan><tspan
         sodipodi:role="line"
         x="124.27786"
         y="109.51977"
         style="font-style:normal;font-variant:normal;font-weight:800;font-stretch:normal;font-size:19.247px;font-family:'Artifakt Element';-inkscape-font-specification:'Artifakt Element Ultra-Bold';fill:#000000;fill-opacity:1;stroke-width:0.264583"
         id="tspan6" /></text>
  </g>
</svg>
